<?xml version="1.0" encoding="UTF-8"?>
<!DOCTYPE svg PUBLIC "-//W3C//DTD SVG 1.1//EN" "http://www.w3.org/Graphics/SVG/1.1/DTD/svg11.dtd">
<!-- Creator: CorelDRAW (Evaluation Version) -->
<svg xmlns="http://www.w3.org/2000/svg" xml:space="preserve" width="64px" height="225778px" version="1.1" style="shape-rendering:geometricPrecision; text-rendering:geometricPrecision; image-rendering:optimizeQuality; fill-rule:evenodd; clip-rule:evenodd"
viewBox="0 0 64 64"
 xmlns:xlink="http://www.w3.org/1999/xlink"
 xmlns:xodm="http://www.corel.com/coreldraw/odm/2003">
 <defs>
  <style type="text/css">
   <![CDATA[
    .str0 {stroke:black;stroke-width:3.75;stroke-miterlimit:2.61313}
    .fil0 {fill:none}
    .fil5 {fill:#234E70}
    .fil4 {fill:#234E70;fill-rule:nonzero}
    .fil3 {fill:black;fill-opacity:0.101961}
    .fil2 {fill:black;fill-opacity:0.600000}
    .fil1 {fill:#2AFEB7;fill-opacity:0.600000}
   ]]>
  </style>
    <clipPath id="id0">
     <path d="M3.17 5.36l73.32 0 0 54.22 -73.32 0 0 -54.22z"/>
    </clipPath>
 </defs>
 <g id="Layer_x0020_1">
  <metadata id="CorelCorpID_0Corel-Layer"/>
  <polygon class="fil0 str0" points="32,4.5 40.75,8.53 49.5,12.55 53.12,22.28 56.74,32 53.12,41.72 49.5,51.45 40.75,55.47 32,59.5 23.25,55.47 14.5,51.45 10.88,41.72 7.26,32 10.88,22.28 14.5,12.55 23.25,8.53 "/>
  <g>
   <polygon class="fil1" points="32,4.5 40.75,8.53 49.5,12.55 53.12,22.28 56.74,32 53.12,41.72 49.5,51.45 40.75,55.47 32,59.5 23.25,55.47 14.5,51.45 10.88,41.72 7.26,32 10.88,22.28 14.5,12.55 23.25,8.53 "/>
   <path id="_1" class="fil2" d="M33.57 1.09c0,0 0,0 0,0l0 0 8.75 4.03 0 0 8.74 4.03c0.94,0.43 1.62,1.2 1.95,2.09l0 0 3.62 9.73 2.75 7.36 0 0c0.36,0.97 -0.13,2.05 -1.1,2.42 -0.97,0.36 -2.05,-0.13 -2.41,-1.1l-2.75 -7.37 -2.31 -6.21 0 0 -1.31 -3.52 -5.35 -2.46 0 0 -3.4 -1.56 -5.34 -2.46 0 0 -3.41 -1.57 -8.75 4.03 -8.75 4.02 -3.62 9.73 -2.33 6.25c-0.36,0.97 -1.44,1.46 -2.41,1.1 -0.97,-0.36 -1.46,-1.44 -1.1,-2.41l0 -0.01 2.33 -6.24 0 0 3.62 -9.73c0.36,-0.96 1.08,-1.69 1.95,-2.09l0 0 8.74 -4.03c0,0 0.01,0 0.01,0l8.74 -4.03c1.04,-0.47 2.18,-0.44 3.14,0zm26.25 33.38l-3.19 8.56 -3.62 9.73c-0.36,0.96 -1.08,1.69 -1.95,2.09l0 0 -8.74 4.03c0,0 0,0 -0.01,0l-7.58 3.49 0 0c-0.94,0.44 -2.05,0.02 -2.49,-0.92 -0.43,-0.94 -0.02,-2.05 0.92,-2.48l7.59 -3.5 8.75 -4.02 2.31 -6.21 0 0 1.31 -3.52 3.19 -8.56c0.36,-0.97 1.44,-1.47 2.41,-1.1 0.97,0.36 1.47,1.44 1.11,2.41l-0.01 0zm-30.06 24c0.94,0.43 1.35,1.54 0.91,2.48 -0.43,0.95 -1.54,1.36 -2.48,0.92l0 0 -6.51 -2.99 0 0 -8.74 -4.03c-0.94,-0.43 -1.62,-1.2 -1.95,-2.09l0 0 -3.62 -9.73c0,0 0,0 0,0l-3.61 -9.67 0 -0.01c-0.36,-0.97 0.13,-2.05 1.1,-2.41 0.97,-0.36 2.05,0.13 2.41,1.1l3.61 9.68 3.62 9.73 5.35 2.46 0 0 3.4 1.56 6.51 3z"/>
  </g>
  <g>
   <g>
    <polygon class="fil3" points="32,13.25 20.81,18.41 15.74,32 20.81,45.59 32,50.75 43.19,45.59 48.26,32 43.19,18.41 "/>
    <path id="_1_0" class="fil3" d="M30.43 9.85c0,0 0,0 0.01,0 0.95,-0.44 2.09,-0.48 3.13,0l11.19 5.15 0 0c0.87,0.4 1.58,1.13 1.94,2.1l4.36 11.69 0.01 0.01c0.36,0.97 -0.14,2.05 -1.11,2.41 -0.97,0.36 -2.05,-0.13 -2.41,-1.1l-4.36 -11.7 -3.41 -1.57 0 0 -7.78 -3.59 -11.19 5.16 -5.07 13.59 2.58 6.91 1.15 3.08 0 0.01c0.36,0.97 -0.13,2.05 -1.1,2.41 0.97,-0.36 2.05,0.13 2.41,1.1l0.03 0.08 11.19 5.16 11.19 -5.16 1.31 -3.51 0 0 0.83 -2.23 2.32 -6.23c0.37,-0.97 1.44,-1.46 2.41,-1.1 0.97,0.36 1.47,1.44 1.11,2.41l-0.01 0.01 -4.46 11.96 0 0c-0.33,0.9 -1,1.67 -1.94,2.1l-11.19 5.15 0 0c-0.96,0.44 -2.1,0.48 -3.14,0l-11.19 -5.15 0 0c-0.87,-0.4 -1.58,-1.13 -1.94,-2.1l-0.03 -0.08 0 0c-0.37,-0.97 0.13,-2.04 1.1,-2.41 -0.97,0.36 -2.05,-0.13 -2.41,-1.1l-3.73 -10c-0.31,-0.81 -0.33,-1.74 0,-2.62l5.07 -13.59 0 0c0.33,-0.9 1,-1.67 1.94,-2.1l11.19 -5.15 0 0z"/>
   </g>
  </g>
  <g>
   <g style="clip-path:url(#id0)">
    <image x="3.17" y="5.36" width="73.31" height="54.21" xlink:href="dn-icon_Images/dn-icon_ImgID1.png"/>
   </g>
  </g>
  <g>
   <path class="fil4" d="M14.64 28.03c0,0.06 0.05,0.09 0.17,0.09 0.09,0 0.46,-0.06 1.16,-0.18 0.69,-0.11 1.3,-0.17 1.85,-0.17 -0.61,0.17 -1.16,0.35 -1.59,0.52 -0.47,0.17 -0.93,0.38 -1.39,0.58 -0.49,0.2 -0.81,0.34 -1.04,0.43 -0.2,0.06 -0.38,0.09 -0.52,0.09 -0.49,0 -0.73,-0.32 -0.73,-0.93 0,-1.59 0.41,-2.71 1.22,-3.38 0.32,-0.26 0.87,-0.58 1.59,-0.92 0.72,-0.38 1.56,-0.73 2.46,-1.04 0.92,-0.32 1.93,-0.61 3.03,-0.84 1.1,-0.23 2.2,-0.35 3.27,-0.35 1.1,0 2.11,0.14 3.03,0.46 0.93,0.35 1.68,0.78 2.31,1.36 0.61,0.58 1.1,1.3 1.45,2.14 0.32,0.84 0.49,1.76 0.49,2.8 0,1.59 -0.46,3.16 -1.39,4.63 -0.92,1.5 -2.14,2.83 -3.67,3.96 -1.53,1.16 -3.23,2.05 -5.17,2.72 -1.91,0.66 -3.82,1.01 -5.67,1.01 -0.34,0 -0.63,-0.03 -0.84,-0.12 -0.2,-0.06 -0.31,-0.23 -0.4,-0.43 -0.09,-0.23 -0.14,-0.55 -0.14,-0.98 0,-0.55 0.05,-0.99 0.14,-1.33 0.09,-0.32 0.2,-0.73 0.4,-1.16 1.36,-3.01 3.73,-6.79 7.09,-11.33 -0.7,0.06 -1.42,0.2 -2.23,0.43 -0.81,0.21 -1.59,0.44 -2.31,0.7 -0.72,0.26 -1.33,0.49 -1.82,0.72 -0.52,0.23 -0.75,0.4 -0.75,0.52zm7.51 -2.46c0,0 0.03,0.12 0.06,0.32 0.03,0.17 0.06,0.35 0.06,0.49 0,0.23 -0.12,0.52 -0.35,0.93 -0.2,0.37 -0.64,1.07 -1.3,2.08 -0.64,0.98 -1.19,1.85 -1.65,2.6 -0.46,0.78 -1.01,1.73 -1.65,2.92 -0.2,0.37 -0.34,0.64 -0.4,0.75 -0.09,0.15 -0.2,0.35 -0.38,0.67 -0.14,0.28 -0.26,0.54 -0.34,0.78 -0.09,0.2 -0.12,0.37 -0.12,0.49 0,0.23 0.15,0.4 0.41,0.52 0.26,0.08 0.66,0.14 1.15,0.14 1.27,0 2.63,-0.23 4.05,-0.69 1.44,-0.46 2.77,-1.13 4.05,-1.97 1.24,-0.81 2.25,-1.76 3,-2.8 0.75,-1.04 1.13,-2.14 1.13,-3.27 0,-1.3 -0.46,-2.28 -1.42,-3 -0.95,-0.7 -2.34,-1.04 -4.16,-1.04 -0.75,0 -1.47,0.02 -2.14,0.08z"/>
   <path id="_1_1" class="fil5" d="M17.05 29.64c-0.08,0.03 -0.17,0.06 -0.24,0.1l-0.04 0.01c-0.4,0.15 -0.85,0.35 -1.31,0.55l-0.01 0 0 0 -0.02 0.01c-0.09,0.04 -0.33,0.14 -0.53,0.22 -0.19,0.09 -0.35,0.15 -0.56,0.23l-0.12 0.04c-0.34,0.1 -0.66,0.15 -0.94,0.15 -0.76,0 -1.36,-0.29 -1.79,-0.85 -0.33,-0.44 -0.5,-0.99 -0.5,-1.64 0,-0.96 0.14,-1.81 0.4,-2.56 0.3,-0.83 0.77,-1.51 1.39,-2.02l0 -0.01c0.21,-0.17 0.5,-0.36 0.85,-0.57 0.27,-0.15 0.61,-0.33 1.01,-0.53l0 0c0.36,-0.19 0.79,-0.39 1.28,-0.59 0.47,-0.2 0.93,-0.38 1.38,-0.54l0.01 0c0.45,-0.16 0.96,-0.32 1.54,-0.48 0.55,-0.15 1.11,-0.29 1.68,-0.41 0.6,-0.13 1.2,-0.22 1.8,-0.28 0.62,-0.07 1.22,-0.1 1.79,-0.1 0.61,0 1.22,0.04 1.81,0.13 0.6,0.09 1.18,0.23 1.73,0.42l0.04 0.01c0.54,0.21 1.04,0.44 1.5,0.71 0.49,0.29 0.92,0.6 1.31,0.96l0.03 0.02c0.39,0.37 0.74,0.79 1.04,1.23 0.29,0.44 0.55,0.92 0.77,1.45l0.02 0.04c0.19,0.52 0.34,1.05 0.44,1.61 0.1,0.55 0.15,1.13 0.15,1.74 0,0.95 -0.13,1.89 -0.41,2.81 -0.27,0.9 -0.67,1.78 -1.21,2.64l0 0c-0.51,0.83 -1.11,1.63 -1.81,2.38 -0.67,0.72 -1.41,1.39 -2.25,2l0 0c-0.83,0.63 -1.71,1.19 -2.65,1.68 -0.94,0.5 -1.92,0.92 -2.95,1.27l-0.01 0c-1.05,0.37 -2.08,0.64 -3.09,0.82 -1.04,0.19 -2.06,0.28 -3.08,0.28 -0.2,0 -0.42,-0.01 -0.67,-0.04 -0.23,-0.03 -0.44,-0.08 -0.64,-0.15 -0.4,-0.12 -0.71,-0.35 -0.96,-0.64 -0.18,-0.21 -0.3,-0.44 -0.4,-0.67l-0.03 -0.07c-0.08,-0.23 -0.15,-0.48 -0.19,-0.75 -0.04,-0.24 -0.06,-0.5 -0.06,-0.77 0,-0.33 0.02,-0.63 0.05,-0.92 0.04,-0.29 0.09,-0.56 0.15,-0.79l0.01 -0.03c0.05,-0.18 0.1,-0.38 0.18,-0.62 0.08,-0.24 0.18,-0.5 0.31,-0.77l-0.01 0c0.71,-1.57 1.67,-3.32 2.89,-5.26 0.29,-0.47 0.6,-0.95 0.92,-1.45zm-2.41 -1.61c0,0.06 0.05,0.09 0.17,0.09 0.09,0 0.46,-0.06 1.16,-0.18 0.69,-0.11 1.3,-0.17 1.85,-0.17 -0.61,0.17 -1.16,0.35 -1.59,0.52 -0.47,0.17 -0.93,0.38 -1.39,0.58 -0.49,0.2 -0.81,0.34 -1.04,0.43 -0.2,0.06 -0.38,0.09 -0.52,0.09 -0.49,0 -0.73,-0.32 -0.73,-0.93 0,-1.59 0.41,-2.71 1.22,-3.38 0.32,-0.26 0.87,-0.58 1.59,-0.92 0.72,-0.38 1.56,-0.73 2.46,-1.04 0.92,-0.32 1.93,-0.61 3.03,-0.84 1.1,-0.23 2.2,-0.35 3.27,-0.35 1.1,0 2.11,0.14 3.03,0.46 0.93,0.35 1.68,0.78 2.31,1.36 0.61,0.58 1.1,1.3 1.45,2.14 0.32,0.84 0.49,1.76 0.49,2.8 0,1.59 -0.46,3.16 -1.39,4.63 -0.92,1.5 -2.14,2.83 -3.67,3.96 -1.53,1.16 -3.23,2.05 -5.17,2.72 -1.91,0.66 -3.82,1.01 -5.67,1.01 -0.34,0 -0.63,-0.03 -0.84,-0.12 -0.2,-0.06 -0.31,-0.23 -0.4,-0.43 -0.09,-0.23 -0.14,-0.55 -0.14,-0.98 0,-0.55 0.05,-0.99 0.14,-1.33 0.09,-0.32 0.2,-0.73 0.4,-1.16 1.36,-3.01 3.73,-6.79 7.09,-11.33 -0.7,0.06 -1.42,0.2 -2.23,0.43 -0.81,0.21 -1.59,0.44 -2.31,0.7 -0.72,0.26 -1.33,0.49 -1.82,0.72 -0.52,0.23 -0.75,0.4 -0.75,0.52zm7.51 -2.46c0,0 0.03,0.12 0.06,0.32 0.03,0.17 0.06,0.35 0.06,0.49 0,0.23 -0.12,0.52 -0.35,0.93 -0.2,0.37 -0.64,1.07 -1.3,2.08 -0.64,0.98 -1.19,1.85 -1.65,2.6 -0.46,0.78 -1.01,1.73 -1.65,2.92 -0.2,0.37 -0.34,0.64 -0.4,0.75 -0.09,0.15 -0.2,0.35 -0.38,0.67 -0.14,0.28 -0.26,0.54 -0.34,0.78 -0.09,0.2 -0.12,0.37 -0.12,0.49 0,0.23 0.15,0.4 0.41,0.52 0.26,0.08 0.66,0.14 1.15,0.14 1.27,0 2.63,-0.23 4.05,-0.69 1.44,-0.46 2.77,-1.13 4.05,-1.97 1.24,-0.81 2.25,-1.76 3,-2.8 0.75,-1.04 1.13,-2.14 1.13,-3.27 0,-1.3 -0.46,-2.28 -1.42,-3 -0.95,-0.7 -2.34,-1.04 -4.16,-1.04 -0.75,0 -1.47,0.02 -2.14,0.08zm1.58 1.48c-0.02,0.09 -0.05,0.19 -0.09,0.28 -0.08,0.22 -0.2,0.45 -0.35,0.71l0 0.01c-0.12,0.22 -0.29,0.51 -0.52,0.88 -0.16,0.26 -0.44,0.69 -0.85,1.31l0.01 0c-0.3,0.46 -0.59,0.91 -0.88,1.37 -0.17,0.26 -0.41,0.65 -0.75,1.2l0 0c-0.25,0.42 -0.5,0.85 -0.73,1.26 -0.25,0.44 -0.54,0.96 -0.87,1.58 -0.23,0.42 0.01,-0.03 -0.21,0.38 -0.1,0.18 -0.17,0.3 -0.18,0.33l-0.05 0.1c-0.03,0.05 -0.08,0.12 -0.14,0.23 0.41,-0.02 0.82,-0.07 1.23,-0.14 0.61,-0.1 1.22,-0.26 1.86,-0.46l0 0c0.66,-0.22 1.29,-0.47 1.88,-0.76 0.62,-0.3 1.21,-0.64 1.79,-1.03l0.01 0c0.53,-0.35 1.02,-0.73 1.46,-1.14 0.44,-0.41 0.81,-0.84 1.13,-1.27 0.29,-0.4 0.5,-0.8 0.64,-1.19 0.12,-0.37 0.19,-0.76 0.19,-1.17 0,-0.42 -0.07,-0.77 -0.2,-1.05 -0.12,-0.26 -0.32,-0.49 -0.58,-0.69 -0.68,-0.5 -1.76,-0.74 -3.24,-0.74 -0.2,0 -0.39,0 -0.56,0z"/>
  </g>
  <g>
   <path id="_2" class="fil4" d="M34.9 34.97c1.68,-2.75 2.95,-4.92 3.79,-6.51 0.81,-1.59 1.24,-2.6 1.24,-3.03 0,-0.18 -0.06,-0.29 -0.17,-0.41 -0.12,-0.08 -0.26,-0.14 -0.41,-0.14 -0.29,0 -1.1,0.29 -2.46,0.84 -1.12,0.46 -1.93,0.84 -2.45,1.12 -0.52,0.29 -1.25,0.67 -2.14,1.19 -0.93,0.52 -1.45,0.78 -1.56,0.78 -0.26,0 -0.41,-0.17 -0.41,-0.55 0,-0.69 0.46,-1.62 1.39,-2.8 0.9,-1.19 2.14,-2.2 3.67,-3.1 0.2,-0.11 0.29,-0.11 0.29,0.03 0,0.06 -0.12,0.15 -0.35,0.32 -0.23,0.17 -0.43,0.35 -0.6,0.52 -0.18,0.17 -0.35,0.43 -0.58,0.78 1.96,-0.98 3.44,-1.68 4.36,-2.08 0.93,-0.4 1.71,-0.61 2.37,-0.61 0.58,0 1.01,0.12 1.36,0.35 0.32,0.26 0.49,0.61 0.49,1.04 0,0.41 -0.17,0.98 -0.46,1.74 -0.32,0.75 -0.78,1.64 -1.39,2.74 -0.6,1.07 -1.21,2.14 -1.85,3.18 -0.6,1.07 -1.76,2.98 -3.38,5.72 1.82,-2.28 3.5,-4.27 5.03,-5.98 1.53,-1.73 2.86,-3.12 4.02,-4.19 1.13,-1.07 2.08,-1.88 2.86,-2.43 0.78,-0.52 1.36,-0.81 1.73,-0.81 0.15,0 0.29,0.15 0.47,0.38 0.17,0.26 0.34,0.55 0.49,0.92 0.14,0.35 0.2,0.64 0.2,0.87 0,0.61 -0.14,1.24 -0.46,1.85 -0.32,0.61 -0.78,1.33 -1.42,2.2 -1.76,2.4 -3.06,4.27 -3.87,5.63 -0.81,1.39 -1.22,2.49 -1.22,3.33 0,0.63 0.32,0.95 0.99,0.95 0.29,0 0.66,-0.11 1.07,-0.35 0.4,-0.23 0.86,-0.57 1.44,-1.04 0.55,-0.46 1.13,-0.98 1.71,-1.53l0.03 1.1c-0.81,0.84 -1.54,1.53 -2.17,2.11 -0.64,0.61 -1.24,1.13 -1.82,1.56 -0.58,0.44 -1.07,0.78 -1.53,0.98 -0.47,0.24 -0.84,0.35 -1.19,0.35 -0.49,0 -0.87,-0.17 -1.19,-0.49 -0.28,-0.35 -0.43,-0.78 -0.43,-1.33 0,-0.49 0.12,-1.13 0.32,-1.85 0.23,-0.69 0.58,-1.53 1.04,-2.49 0.43,-0.92 1.01,-1.96 1.68,-3.06 0.66,-1.1 1.44,-2.23 2.28,-3.44 0.84,-1.18 1.24,-1.94 1.24,-2.28 0,-0.21 -0.11,-0.29 -0.31,-0.29 -0.84,0 -2.75,1.67 -5.73,5 -0.2,0.2 -0.52,0.61 -0.98,1.15 -0.46,0.55 -0.96,1.16 -1.42,1.8 -0.49,0.63 -1.04,1.33 -1.65,2.11 -0.6,0.78 -1.21,1.59 -1.82,2.4 -0.29,0.37 -0.55,0.57 -0.75,0.57 -0.23,0 -0.52,-0.17 -0.89,-0.54 -0.38,-0.38 -0.55,-0.64 -0.55,-0.81 0,-0.21 0.26,-0.7 0.78,-1.48 0.52,-0.78 0.95,-1.44 1.27,-1.99z"/>
   <path id="_3" class="fil5" d="M33.57 34.16c0.83,-1.37 1.56,-2.58 2.19,-3.66 0.61,-1.06 1.13,-1.97 1.54,-2.74l-0.01 0c0.12,-0.24 0.23,-0.45 0.33,-0.66 -0.05,0.02 -0.1,0.04 -0.15,0.06l0 0c-0.53,0.22 -0.98,0.42 -1.36,0.59 -0.38,0.17 -0.68,0.32 -0.92,0.46 -0.33,0.18 -0.44,0.24 -0.56,0.31 -0.44,0.23 -0.97,0.52 -1.55,0.86l-0.02 0.01c-0.43,0.24 -0.81,0.45 -1.15,0.62 -0.49,0.24 -0.88,0.36 -1.17,0.36 -0.65,0 -1.18,-0.25 -1.56,-0.78 -0.27,-0.36 -0.41,-0.8 -0.41,-1.33 0,-0.59 0.17,-1.22 0.51,-1.91 0.27,-0.55 0.67,-1.16 1.2,-1.83l-0.01 0c0.53,-0.69 1.14,-1.33 1.85,-1.91 0.67,-0.57 1.43,-1.09 2.28,-1.59l0.02 -0.01c0.37,-0.22 0.72,-0.32 1.11,-0.29 0.41,0.04 0.73,0.14 0.97,0.32 0.43,-0.2 0.83,-0.38 1.19,-0.54 0.53,-0.23 1.03,-0.41 1.52,-0.53 0.54,-0.14 1.03,-0.21 1.47,-0.21 0.41,0 0.79,0.05 1.16,0.14l0 0c0.4,0.11 0.75,0.27 1.07,0.48l0.12 0.08c0.33,0.27 0.59,0.6 0.78,0.99 0.19,0.4 0.29,0.81 0.29,1.26 0,0.33 -0.07,0.71 -0.19,1.15 -0.06,0.21 -0.13,0.43 -0.21,0.67 0.48,-0.45 0.93,-0.86 1.35,-1.21 0.52,-0.44 0.99,-0.8 1.41,-1.1l0.03 -0.03c0.44,-0.29 0.85,-0.53 1.22,-0.71 0.5,-0.24 0.96,-0.36 1.38,-0.36 0.48,0 0.88,0.17 1.24,0.48 0.17,0.14 0.32,0.32 0.47,0.52l0.05 0.07c0.11,0.16 0.22,0.34 0.33,0.54 0.1,0.19 0.21,0.41 0.31,0.66l0 -0.01c0.1,0.26 0.18,0.5 0.23,0.74 0.07,0.27 0.09,0.52 0.09,0.73 0,0.43 -0.05,0.87 -0.16,1.32 -0.11,0.41 -0.26,0.83 -0.48,1.25 -0.19,0.37 -0.41,0.74 -0.66,1.12 -0.25,0.39 -0.54,0.82 -0.88,1.28 -0.89,1.21 -1.65,2.27 -2.27,3.17 -0.62,0.9 -1.13,1.68 -1.51,2.32l0 0c-0.31,0.53 -0.55,1.01 -0.72,1.42 0.25,-0.19 0.46,-0.34 0.65,-0.5 0.18,-0.15 0.45,-0.38 0.79,-0.69 0.31,-0.28 0.59,-0.54 0.84,-0.78l2.63 1.1 0.03 1.09 -0.43 1.12c-0.42,0.43 -0.81,0.83 -1.19,1.19 -0.4,0.39 -0.75,0.72 -1.05,0.99l0 0c-0.33,0.32 -0.65,0.61 -0.97,0.88 -0.31,0.27 -0.64,0.53 -0.97,0.78 -0.31,0.23 -0.6,0.44 -0.89,0.63 -0.33,0.22 -0.64,0.4 -0.95,0.53l0 0c-0.29,0.14 -0.57,0.25 -0.82,0.33 -0.35,0.1 -0.67,0.15 -0.99,0.15 -0.46,0 -0.87,-0.08 -1.27,-0.25 -0.39,-0.17 -0.73,-0.4 -1.02,-0.7l-0.09 -0.11c-0.28,-0.32 -0.48,-0.69 -0.61,-1.1 -0.13,-0.38 -0.19,-0.78 -0.19,-1.22 0,-0.32 0.04,-0.69 0.1,-1.08 0.07,-0.37 0.16,-0.77 0.28,-1.19l0.02 -0.07c0.14,-0.42 0.3,-0.85 0.48,-1.27 0.18,-0.43 0.39,-0.9 0.64,-1.4l0 0c0.12,-0.26 0.24,-0.51 0.37,-0.76 -0.09,0.11 -0.18,0.22 -0.28,0.35 -0.22,0.27 -0.44,0.56 -0.66,0.87l-0.03 0.04c-0.18,0.22 -0.51,0.65 -0.87,1.11 -0.14,0.18 0.27,-0.35 -0.78,1.01 -0.78,0.99 -1.29,1.68 -1.81,2.37l0 0 -0.01 0.02c-0.23,0.29 -0.46,0.53 -0.69,0.71 -0.41,0.31 -0.85,0.48 -1.3,0.48 -0.4,0 -0.8,-0.12 -1.2,-0.37 -0.27,-0.16 -0.53,-0.37 -0.8,-0.64 -0.25,-0.26 -0.45,-0.49 -0.6,-0.71 -0.28,-0.4 -0.41,-0.8 -0.41,-1.2 0,-0.36 0.13,-0.77 0.38,-1.25 0.16,-0.3 0.38,-0.66 0.67,-1.09l0 -0.01c0.31,-0.47 0.56,-0.85 0.7,-1.05 0.2,-0.32 0.38,-0.61 0.52,-0.85l0.02 -0.03zm8.7 -9.71c-0.32,0.75 -0.78,1.64 -1.39,2.74 -0.6,1.07 -1.21,2.14 -1.85,3.18 -0.6,1.07 -1.76,2.98 -3.38,5.72 1.82,-2.28 3.5,-4.27 5.03,-5.98 1.53,-1.73 2.86,-3.12 4.02,-4.19 1.13,-1.07 2.08,-1.88 2.86,-2.43 0.78,-0.52 1.36,-0.81 1.73,-0.81 0.15,0 0.29,0.15 0.47,0.38 0.17,0.26 0.34,0.55 0.49,0.92 0.14,0.35 0.2,0.64 0.2,0.87 0,0.61 -0.14,1.24 -0.46,1.85 -0.32,0.61 -0.78,1.33 -1.42,2.2 -1.76,2.4 -3.06,4.27 -3.87,5.63 -0.81,1.39 -1.22,2.49 -1.22,3.33 0,0.63 0.32,0.95 0.99,0.95 0.29,0 0.66,-0.11 1.07,-0.35 0.4,-0.23 0.86,-0.57 1.44,-1.04 0.55,-0.46 1.13,-0.98 1.71,-1.53l0.03 1.1c-0.81,0.84 -1.54,1.53 -2.17,2.11 -0.64,0.61 -1.24,1.13 -1.82,1.56 -0.58,0.44 -1.07,0.78 -1.53,0.98 -0.47,0.24 -0.84,0.35 -1.19,0.35 -0.49,0 -0.87,-0.17 -1.19,-0.49 -0.28,-0.35 -0.43,-0.78 -0.43,-1.33 0,-0.49 0.12,-1.13 0.32,-1.85 0.23,-0.69 0.58,-1.53 1.04,-2.49 0.43,-0.92 1.01,-1.96 1.68,-3.06 0.66,-1.1 1.44,-2.23 2.28,-3.44 0.84,-1.18 1.24,-1.94 1.24,-2.28 0,-0.21 -0.11,-0.29 -0.31,-0.29 -0.84,0 -2.75,1.67 -5.73,5 -0.2,0.2 -0.52,0.61 -0.98,1.15 -0.46,0.55 -0.96,1.16 -1.42,1.8 -0.49,0.63 -1.04,1.33 -1.65,2.11 -0.6,0.78 -1.21,1.59 -1.82,2.4 -0.29,0.37 -0.55,0.57 -0.75,0.57 -0.23,0 -0.52,-0.17 -0.89,-0.54 -0.38,-0.38 -0.55,-0.64 -0.55,-0.81 0,-0.21 0.26,-0.7 0.78,-1.48 0.52,-0.78 0.95,-1.44 1.27,-1.99 1.68,-2.75 2.95,-4.92 3.79,-6.51 0.81,-1.59 1.24,-2.6 1.24,-3.03 0,-0.18 -0.06,-0.29 -0.17,-0.41 -0.12,-0.08 -0.26,-0.14 -0.41,-0.14 -0.29,0 -1.1,0.29 -2.46,0.84 -1.12,0.46 -1.93,0.84 -2.45,1.12 -0.52,0.29 -1.25,0.67 -2.14,1.19 -0.93,0.52 -1.45,0.78 -1.56,0.78 -0.26,0 -0.41,-0.17 -0.41,-0.55 0,-0.69 0.46,-1.62 1.39,-2.8 0.9,-1.19 2.14,-2.2 3.67,-3.1 0.2,-0.11 0.29,-0.11 0.29,0.03 0,0.06 -0.12,0.15 -0.35,0.32 -0.23,0.17 -0.43,0.35 -0.6,0.52 -0.18,0.17 -0.35,0.43 -0.58,0.78 1.96,-0.98 3.44,-1.68 4.36,-2.08 0.93,-0.4 1.71,-0.61 2.37,-0.61 0.58,0 1.01,0.12 1.36,0.35 0.32,0.26 0.49,0.61 0.49,1.04 0,0.41 -0.17,0.98 -0.46,1.74z"/>
  </g>
 </g>
</svg>
