<?xml version="1.0" encoding="UTF-8"?>
<!DOCTYPE svg PUBLIC "-//W3C//DTD SVG 1.1//EN" "http://www.w3.org/Graphics/SVG/1.1/DTD/svg11.dtd">
<!-- Creator: CorelDRAW (Evaluation Version) -->
<svg xmlns="http://www.w3.org/2000/svg" xml:space="preserve" width="1024px" height="1024px" version="1.1" style="shape-rendering:geometricPrecision; text-rendering:geometricPrecision; image-rendering:optimizeQuality; fill-rule:evenodd; clip-rule:evenodd"
viewBox="0 0 1024 1024"
 xmlns:xlink="http://www.w3.org/1999/xlink"
 xmlns:xodm="http://www.corel.com/coreldraw/odm/2003">
 <defs>
  <style type="text/css">
   <![CDATA[
    .str0 {stroke:black;stroke-width:60;stroke-miterlimit:2.61313}
    .fil0 {fill:none}
    .fil5 {fill:#234E70}
    .fil4 {fill:#234E70;fill-rule:nonzero}
    .fil3 {fill:black;fill-opacity:0.101961}
    .fil2 {fill:black;fill-opacity:0.600000}
    .fil1 {fill:#2AFEB7;fill-opacity:0.600000}
   ]]>
  </style>
    <clipPath id="id0">
     <path d="M50.78 85.79l1173 0 0 867.43 -1173 0 0 -867.43z"/>
    </clipPath>
 </defs>
 <g id="Layer_x0020_1">
  <metadata id="CorelCorpID_0Corel-Layer"/>
  <polygon class="fil0 str0" points="512,71.98 651.97,136.42 791.94,200.86 849.92,356.43 907.9,512 849.92,667.57 791.94,823.14 651.97,887.58 512,952.02 372.03,887.58 232.06,823.14 174.08,667.57 116.1,512 174.08,356.43 232.06,200.86 372.03,136.42 "/>
  <g>
   <polygon class="fil1" points="512,71.98 651.97,136.42 791.94,200.86 849.92,356.43 907.9,512 849.92,667.57 791.94,823.14 651.97,887.58 512,952.02 372.03,887.58 232.06,823.14 174.08,667.57 116.1,512 174.08,356.43 232.06,200.86 372.03,136.42 "/>
   <path id="_1" class="fil2" d="M537.07 17.47c0,0.01 0.01,0.01 0.02,0.01l0 0 139.97 64.44 0 0 139.98 64.44c14.99,6.9 25.78,19.21 31.12,33.55l0.01 0 57.97 155.57 43.89 117.76 0.04 0.11c5.79,15.53 -2.11,32.8 -17.63,38.59 -15.51,5.78 -32.78,-2.1 -38.58,-17.6l-43.94 -117.91 -37.02 -99.35 0 0 -20.96 -56.22 -85.47 -39.35 0 0 -54.5 -25.09 -85.47 -39.35 0 0 -54.5 -25.09 -139.97 64.44 -139.97 64.44 -57.98 155.57 -37.27 100.01c-5.8,15.51 -23.07,23.4 -38.58,17.61 -15.53,-5.78 -23.42,-23.06 -17.64,-38.58l0.04 -0.11 37.23 -99.88 0 0 57.97 -155.57c5.77,-15.47 17.24,-27.15 31.13,-33.55l0.01 0 139.97 -64.44c0.01,-0.01 0.02,-0.01 0.03,-0.02l139.94 -64.42c16.56,-7.62 34.79,-7.06 50.16,-0.01zm420.11 534.12l-51.04 136.93 -57.97 155.57c-5.77,15.47 -17.23,27.15 -31.13,33.55l0 0 -139.98 64.44c-0.01,0.01 -0.02,0.01 -0.03,0.02l-121.36 55.86 0 0c-15.05,6.93 -32.87,0.35 -39.79,-14.7 -6.93,-15.05 -0.35,-32.86 14.69,-39.79l121.4 -55.89 139.97 -64.44 37.03 -99.35 0 0 20.95 -56.22 51.08 -137.05c5.79,-15.52 23.06,-23.41 38.58,-17.63 15.53,5.79 23.42,23.07 17.64,38.59l-0.04 0.11zm-481.1 383.89c15.05,6.93 21.63,24.75 14.71,39.8 -6.93,15.05 -24.75,21.63 -39.8,14.7l0 0 -104.05 -47.9 0 0 -139.97 -64.44c-15,-6.9 -25.79,-19.21 -31.13,-33.54l-0.01 -0.01 -57.97 -155.57c-0.01,-0.01 -0.01,-0.02 -0.02,-0.03l-57.68 -154.79 -0.04 -0.11c-5.79,-15.52 2.11,-32.8 17.63,-38.58 15.51,-5.78 32.77,2.09 38.57,17.58l57.76 154.98 57.98 155.57 85.47 39.35 0 0 54.5 25.09 104.05 47.9z"/>
  </g>
  <g>
   <g>
    <polygon class="fil3" points="512,212.06 332.95,294.49 251.89,512 332.95,729.51 512,811.94 691.05,729.51 772.11,512 691.05,294.49 "/>
    <path id="_1_0" class="fil3" d="M486.91 157.56c0.02,-0.01 0.04,-0.02 0.05,-0.03 15.36,-7.04 33.58,-7.59 50.13,0.03l179.05 82.42 0.01 0.01c13.89,6.4 25.36,18.08 31.12,33.54l69.76 187.16 0.04 0.11c5.78,15.53 -2.11,32.81 -17.64,38.59 -15.52,5.79 -32.8,-2.11 -38.59,-17.63l-69.79 -187.27 -54.5 -25.09 0 0 -124.55 -57.34 -179.05 82.43 -81.06 217.51 41.18 110.49 18.41 49.41 0.04 0.11c5.78,15.51 -2.1,32.78 -17.61,38.58 15.51,-5.77 32.77,2.12 38.56,17.63l0.48 1.29 179.05 82.43 179.05 -82.43 20.95 -56.22 0 0 13.28 -35.62 37.18 -99.76c5.81,-15.48 23.06,-23.34 38.56,-17.57 15.52,5.79 23.42,23.07 17.63,38.59l-0.04 0.11 -71.34 191.43 0 0c-5.34,14.34 -16.13,26.64 -31.13,33.55l-179.05 82.43 0 0c-15.37,7.06 -33.61,7.62 -50.18,0l-179.05 -82.43 0 -0.01c-13.9,-6.4 -25.37,-18.08 -31.13,-33.54l-0.48 -1.29 0 0c-5.78,-15.51 2.1,-32.78 17.61,-38.57 -15.52,5.76 -32.78,-2.13 -38.56,-17.65l-59.63 -159.98c-4.88,-13.05 -5.26,-27.85 -0.01,-41.93l81.07 -217.52 0 0c5.35,-14.34 16.14,-26.64 31.13,-33.55l179.05 -82.42 0 0z"/>
   </g>
  </g>
  <g>
   <g style="clip-path:url(#id0)">
    <image x="50.78" y="85.79" width="1172.99" height="867.43" xlink:href="Logo Daniel Naranjo_Images/Logo Daniel Naranjo_ImgID1.png"/>
   </g>
  </g>
  <g>
   <path class="fil4" d="M234.17 448.47c0,0.93 0.93,1.39 2.78,1.39 1.39,0 7.4,-0.93 18.5,-2.78 11.1,-1.85 20.81,-2.77 29.6,-2.77 -9.71,2.77 -18.5,5.55 -25.44,8.32 -7.4,2.78 -14.8,6.02 -22.2,9.25 -7.86,3.24 -12.95,5.55 -16.65,6.94 -3.24,0.93 -6.01,1.39 -8.32,1.39 -7.87,0 -11.57,-5.09 -11.57,-14.8 0,-25.44 6.48,-43.48 19.43,-54.11 5.09,-4.17 13.87,-9.25 25.44,-14.8 11.56,-6.02 24.97,-11.57 39.31,-16.65 14.8,-5.09 30.99,-9.72 48.56,-13.42 17.58,-3.7 35.15,-5.55 52.26,-5.55 17.58,0 33.77,2.32 48.57,7.4 14.79,5.55 26.82,12.49 37,21.74 9.71,9.25 17.57,20.81 23.12,34.23 5.09,13.41 7.86,28.21 7.86,44.86 0,25.44 -7.4,50.41 -22.2,74 -14.8,24.05 -34.22,45.32 -58.74,63.36 -24.51,18.5 -51.79,32.84 -82.78,43.48 -30.53,10.63 -61.05,16.18 -90.65,16.18 -5.55,0 -10.18,-0.46 -13.41,-1.85 -3.24,-0.92 -5.09,-3.7 -6.48,-6.93 -1.39,-3.7 -2.31,-8.79 -2.31,-15.73 0,-8.79 0.92,-15.72 2.31,-21.27 1.39,-5.09 3.24,-11.57 6.48,-18.5 21.73,-48.1 59.66,-108.69 113.31,-181.3 -11.1,0.92 -22.66,3.23 -35.61,6.93 -12.95,3.24 -25.44,6.94 -37,11.1 -11.57,4.17 -21.28,7.87 -29.14,11.57 -8.33,3.7 -12.03,6.47 -12.03,8.32zm120.25 -39.31c0,0 0.46,1.85 0.93,5.09 0.46,2.77 0.92,5.55 0.92,7.86 0,3.7 -1.85,8.32 -5.55,14.8 -3.23,6.01 -10.17,17.11 -20.81,33.3 -10.17,15.72 -18.96,29.6 -26.36,41.62 -7.4,12.49 -16.19,27.75 -26.36,46.72 -3.24,6.01 -5.55,10.17 -6.48,12.02 -1.39,2.31 -3.24,5.55 -6.01,10.64 -2.31,4.62 -4.16,8.79 -5.55,12.49 -1.39,3.23 -1.85,6.01 -1.85,7.86 0,3.7 2.31,6.47 6.47,8.32 4.17,1.39 10.64,2.32 18.5,2.32 20.35,0 42.09,-3.7 64.75,-11.1 23.13,-7.4 44.4,-18.04 64.75,-31.45 19.89,-12.95 36.08,-28.22 48.1,-44.87 12.03,-16.65 18.04,-34.22 18.04,-52.26 0,-20.81 -7.4,-36.54 -22.66,-48.1 -15.26,-11.1 -37.46,-16.65 -66.6,-16.65 -12.03,0 -23.59,0.46 -34.23,1.39z"/>
   <path id="_1_1" class="fil5" d="M272.85 474.27c-1.38,0.5 -2.7,1 -3.96,1.51l-0.59 0.19c-6.3,2.37 -13.61,5.56 -20.9,8.75l-0.2 0.1 -0.02 0.01 -0.3 0.1c-1.5,0.62 -5.27,2.22 -8.51,3.61 -3.08,1.31 -5.51,2.35 -8.92,3.62l-1.85 0.68c-5.52,1.58 -10.58,2.37 -15.16,2.37 -12.18,0 -21.64,-4.61 -28.56,-13.62 -5.39,-7.03 -8.01,-15.78 -8.01,-26.18 0,-15.42 2.14,-29.09 6.42,-41.01 4.79,-13.35 12.19,-24.13 22.19,-32.34l0 -0.1c3.42,-2.8 7.98,-5.85 13.54,-9.09 4.35,-2.53 9.8,-5.37 16.23,-8.48l-0.04 -0.06c5.78,-3.01 12.69,-6.18 20.47,-9.46 7.63,-3.21 15,-6.05 22.07,-8.56l0.19 -0.1c7.23,-2.48 15.42,-5.03 24.71,-7.61 8.68,-2.42 17.65,-4.64 26.88,-6.58 9.61,-2.02 19.2,-3.54 28.69,-4.55 9.97,-1.06 19.55,-1.59 28.65,-1.59 9.88,0 19.52,0.67 28.94,2.09 9.69,1.45 18.93,3.66 27.73,6.68l0.59 0.29c8.75,3.28 16.75,7.02 24.14,11.34 7.75,4.53 14.69,9.58 20.96,15.28l0.39 0.4c6.26,5.96 11.85,12.55 16.68,19.71 4.69,6.93 8.81,14.65 12.31,23.1l0.29 0.69c3.12,8.23 5.52,16.78 7.11,25.71 1.58,8.89 2.41,18.19 2.41,27.94 0,15.11 -2.22,30.14 -6.66,44.93 -4.3,14.34 -10.73,28.43 -19.3,42.12l0.05 0.04c-8.24,13.39 -17.9,26.13 -29.04,38.14 -10.65,11.5 -22.62,22.2 -35.96,32.04l0.01 0.01c-13.28,10.02 -27.36,18.95 -42.38,26.84 -15.06,7.91 -30.8,14.67 -47.34,20.35l-0.02 -0.06c-16.83,5.86 -33.4,10.27 -49.57,13.16 -16.53,2.95 -32.96,4.45 -49.16,4.45 -3.31,0 -6.82,-0.2 -10.7,-0.69 -3.72,-0.48 -7.17,-1.24 -10.33,-2.37 -6.39,-1.98 -11.32,-5.57 -15.26,-10.18 -2.93,-3.41 -4.96,-7.06 -6.55,-10.78l-0.39 -1.07c-1.37,-3.65 -2.45,-7.69 -3.1,-12.1 -0.55,-3.78 -0.87,-7.89 -0.87,-12.32 0,-5.18 0.3,-10.08 0.83,-14.68 0.53,-4.67 1.32,-8.87 2.26,-12.65l0.2 -0.49c0.76,-2.81 1.67,-6.04 2.93,-9.82 1.31,-3.92 2.89,-8.1 4.86,-12.37l-0.05 -0.02c11.32,-25.04 26.72,-53.14 46.15,-84.23 4.69,-7.5 9.63,-15.19 14.82,-23.09zm-38.68 -25.8c0,0.93 0.93,1.39 2.78,1.39 1.39,0 7.4,-0.93 18.5,-2.78 11.1,-1.85 20.81,-2.77 29.6,-2.77 -9.71,2.77 -18.5,5.55 -25.44,8.32 -7.4,2.78 -14.8,6.02 -22.2,9.25 -7.86,3.24 -12.95,5.55 -16.65,6.94 -3.24,0.93 -6.01,1.39 -8.32,1.39 -7.87,0 -11.57,-5.09 -11.57,-14.8 0,-25.44 6.48,-43.48 19.43,-54.11 5.09,-4.17 13.87,-9.25 25.44,-14.8 11.56,-6.02 24.97,-11.57 39.31,-16.65 14.8,-5.09 30.99,-9.72 48.56,-13.42 17.58,-3.7 35.15,-5.55 52.26,-5.55 17.58,0 33.77,2.32 48.57,7.4 14.79,5.55 26.82,12.49 37,21.74 9.71,9.25 17.57,20.81 23.12,34.23 5.09,13.41 7.86,28.21 7.86,44.86 0,25.44 -7.4,50.41 -22.2,74 -14.8,24.05 -34.22,45.32 -58.74,63.36 -24.51,18.5 -51.79,32.84 -82.78,43.48 -30.53,10.63 -61.05,16.18 -90.65,16.18 -5.55,0 -10.18,-0.46 -13.41,-1.85 -3.24,-0.92 -5.09,-3.7 -6.48,-6.93 -1.39,-3.7 -2.31,-8.79 -2.31,-15.73 0,-8.79 0.92,-15.72 2.31,-21.27 1.39,-5.09 3.24,-11.57 6.48,-18.5 21.73,-48.1 59.66,-108.69 113.31,-181.3 -11.1,0.92 -22.66,3.23 -35.61,6.93 -12.95,3.24 -25.44,6.94 -37,11.1 -11.57,4.17 -21.28,7.87 -29.14,11.57 -8.33,3.7 -12.03,6.47 -12.03,8.32zm120.25 -39.31c0,0 0.46,1.85 0.93,5.09 0.46,2.77 0.92,5.55 0.92,7.86 0,3.7 -1.85,8.32 -5.55,14.8 -3.23,6.01 -10.17,17.11 -20.81,33.3 -10.17,15.72 -18.96,29.6 -26.36,41.62 -7.4,12.49 -16.19,27.75 -26.36,46.72 -3.24,6.01 -5.55,10.17 -6.48,12.02 -1.39,2.31 -3.24,5.55 -6.01,10.64 -2.31,4.62 -4.16,8.79 -5.55,12.49 -1.39,3.23 -1.85,6.01 -1.85,7.86 0,3.7 2.31,6.47 6.47,8.32 4.17,1.39 10.64,2.32 18.5,2.32 20.35,0 42.09,-3.7 64.75,-11.1 23.13,-7.4 44.4,-18.04 64.75,-31.45 19.89,-12.95 36.08,-28.22 48.1,-44.87 12.03,-16.65 18.04,-34.22 18.04,-52.26 0,-20.81 -7.4,-36.54 -22.66,-48.1 -15.26,-11.1 -37.46,-16.65 -66.6,-16.65 -12.03,0 -23.59,0.46 -34.23,1.39zm25.31 23.67c-0.42,1.48 -0.92,2.99 -1.51,4.52 -1.28,3.38 -3.13,7.12 -5.54,11.37l0.02 0c-1.92,3.56 -4.73,8.3 -8.42,14.21 -2.56,4.1 -7.07,11.06 -13.49,20.84l0.02 0.01c-4.75,7.35 -9.43,14.65 -14.02,21.9 -2.65,4.18 -6.61,10.56 -11.95,19.24l-0.03 -0.02c-3.98,6.72 -8,13.6 -11.72,20.17 -4.04,7.11 -8.64,15.43 -13.93,25.29 -3.63,6.73 0.18,-0.39 -3.35,6.1 -1.53,2.83 -2.65,4.87 -2.83,5.24l-0.88 1.66c-0.5,0.83 -1.17,1.99 -2.11,3.64 6.46,-0.33 13.01,-1.06 19.66,-2.2 9.63,-1.65 19.54,-4.13 29.66,-7.44l0.1 0c10.52,-3.36 20.51,-7.41 30.09,-12.1 9.79,-4.79 19.29,-10.28 28.6,-16.42l0.1 -0.09c8.55,-5.57 16.37,-11.69 23.4,-18.24 7,-6.53 13.03,-13.32 18.06,-20.28 4.59,-6.36 7.99,-12.75 10.19,-19.11 2.04,-5.92 3.06,-12.13 3.06,-18.6 0,-6.76 -1.04,-12.37 -3.17,-16.87 -1.95,-4.15 -5.02,-7.83 -9.23,-11.07 -10.88,-7.87 -28.17,-11.81 -51.86,-11.81 -3.29,0 -6.26,0.02 -8.92,0.06z"/>
  </g>
  <g>
   <path id="_2" class="fil4" d="M558.39 559.47c26.82,-43.94 47.17,-78.62 60.58,-104.06 12.95,-25.44 19.89,-41.63 19.89,-48.56 0,-2.78 -0.92,-4.63 -2.77,-6.48 -1.85,-1.39 -4.17,-2.31 -6.48,-2.31 -4.62,0 -17.57,4.62 -39.31,13.41 -18.04,7.4 -30.99,13.41 -39.31,18.04 -8.33,4.62 -19.89,10.64 -34.23,18.96 -14.8,8.33 -23.12,12.49 -24.97,12.49 -4.17,0 -6.48,-2.78 -6.48,-8.79 0,-11.1 7.4,-25.9 22.2,-44.86 14.34,-18.96 34.23,-35.15 58.74,-49.49 3.24,-1.85 4.62,-1.85 4.62,0.46 0,0.93 -1.85,2.32 -5.55,5.09 -3.7,2.78 -6.93,5.55 -9.71,8.33 -2.77,2.77 -5.55,6.93 -9.25,12.48 31.45,-15.72 55.04,-26.82 69.84,-33.3 14.8,-6.47 27.29,-9.71 37.92,-9.71 9.25,0 16.19,1.85 21.74,5.55 5.09,4.16 7.86,9.71 7.86,16.65 0,6.48 -2.77,15.73 -7.4,27.75 -5.08,12.03 -12.48,26.36 -22.2,43.94 -9.71,17.11 -19.42,34.22 -29.6,50.87 -9.71,17.12 -28.21,47.64 -54.11,91.58 29.14,-36.54 55.96,-68.45 80.48,-95.74 24.51,-27.75 45.78,-49.95 64.28,-67.06 18.04,-17.11 33.3,-30.06 45.79,-38.85 12.49,-8.33 21.74,-12.95 27.75,-12.95 2.31,0 4.63,2.31 7.4,6.01 2.78,4.16 5.55,8.79 7.86,14.8 2.32,5.55 3.24,10.18 3.24,13.88 0,9.71 -2.31,19.88 -7.4,29.6 -5.09,9.71 -12.49,21.27 -22.66,35.15 -28.21,38.38 -49.03,68.45 -61.98,90.18 -12.95,22.2 -19.42,39.78 -19.42,53.19 0,10.18 5.09,15.26 15.72,15.26 4.63,0 10.64,-1.85 17.12,-5.55 6.47,-3.7 13.87,-9.25 23.12,-16.65 8.79,-7.4 18.04,-15.72 27.29,-24.51l0.46 17.58c-12.95,13.41 -24.51,24.51 -34.69,33.76 -10.17,9.71 -19.88,18.04 -29.13,24.97 -9.25,6.94 -17.12,12.49 -24.52,15.73 -7.4,3.7 -13.41,5.55 -18.96,5.55 -7.86,0 -13.87,-2.78 -18.96,-7.86 -4.63,-5.55 -6.94,-12.49 -6.94,-21.28 0,-7.86 1.85,-18.04 5.09,-29.6 3.7,-11.1 9.25,-24.51 16.65,-39.77 6.94,-14.8 16.19,-31.45 26.82,-49.03 10.64,-17.57 23.13,-35.61 36.54,-55.04 13.41,-18.96 19.89,-30.98 19.89,-36.53 0,-3.24 -1.85,-4.63 -5.09,-4.63 -13.41,0 -43.94,26.83 -91.57,80.01 -3.24,3.24 -8.33,9.72 -15.73,18.5 -7.4,8.79 -15.26,18.5 -22.66,28.68 -7.86,10.17 -16.65,21.27 -26.36,33.76 -9.72,12.49 -19.43,25.44 -29.14,38.39 -4.63,6.01 -8.79,9.25 -12.03,9.25 -3.7,0 -8.32,-2.78 -14.33,-8.79 -6.02,-6.01 -8.79,-10.17 -8.79,-12.95 0,-3.24 4.16,-11.1 12.49,-23.59 8.32,-12.48 15.26,-23.12 20.35,-31.91z"/>
   <path id="_3" class="fil5" d="M537.1 546.48c13.29,-21.77 24.98,-41.26 35.03,-58.48 9.87,-16.92 18.09,-31.56 24.61,-43.9l-0.03 -0.02c1.89,-3.71 3.63,-7.19 5.23,-10.42 -0.78,0.31 -1.56,0.63 -2.36,0.96l-0.01 -0.02c-8.55,3.51 -15.8,6.64 -21.81,9.4 -6.04,2.77 -10.91,5.2 -14.66,7.29 -5.33,2.96 -7.07,3.9 -9.03,4.96 -7.01,3.8 -15.47,8.38 -24.81,13.8l-0.29 0.2c-6.9,3.87 -13.03,7.16 -18.42,9.85 -7.81,3.91 -14.07,5.86 -18.76,5.86 -10.35,0 -18.77,-4.04 -24.97,-12.46 -4.27,-5.79 -6.51,-12.88 -6.51,-21.33 0,-9.37 2.73,-19.52 8.19,-30.52 4.38,-8.82 10.76,-18.59 19.13,-29.35l-0.04 -0.03c8.34,-11.03 18.2,-21.18 29.46,-30.58 10.76,-8.99 23.01,-17.41 36.6,-25.35l0.2 -0.2c5.98,-3.42 11.64,-5.02 17.78,-4.55 6.58,0.49 11.75,2.15 15.6,5.02 6.88,-3.19 13.26,-6.07 19.01,-8.58 8.47,-3.7 16.56,-6.56 24.33,-8.55 8.58,-2.21 16.41,-3.31 23.55,-3.31 6.54,0 12.66,0.76 18.51,2.27l-0.01 0.02c6.42,1.66 12.05,4.18 17.11,7.56l1.95 1.37c5.28,4.31 9.47,9.6 12.48,15.87 3,6.26 4.56,12.97 4.56,20.11 0,5.32 -1.03,11.41 -2.94,18.34 -0.92,3.35 -2.08,6.96 -3.45,10.84 7.78,-7.28 15.02,-13.76 21.71,-19.43 8.22,-6.99 15.75,-12.88 22.57,-17.67l0.48 -0.39c7.01,-4.68 13.48,-8.49 19.53,-11.36 7.99,-3.79 15.31,-5.79 22.09,-5.79 7.61,0 13.99,2.74 19.74,7.67 2.7,2.32 5.13,5.13 7.58,8.4l0.78 1.07c1.72,2.57 3.48,5.37 5.28,8.66 1.66,3.03 3.3,6.45 4.87,10.46l0.06 -0.02c1.68,4.02 2.91,7.96 3.76,11.73 0.99,4.42 1.43,8.32 1.43,11.72 0,6.87 -0.86,13.99 -2.66,21.19 -1.63,6.55 -4.16,13.24 -7.67,19.93 -3.07,5.86 -6.55,11.84 -10.5,17.97 -4,6.22 -8.69,13 -14.11,20.4 -14.24,19.37 -26.38,36.31 -36.32,50.75 -9.94,14.44 -18.03,26.83 -24.21,37.19l0.02 0c-4.95,8.49 -8.77,16.02 -11.46,22.64 4.04,-2.96 7.35,-5.51 10.43,-7.96 2.85,-2.4 7.11,-6.15 12.65,-11.13 4.93,-4.42 9.42,-8.57 13.43,-12.38l42.09 17.48 0.46 17.58 -6.93 17.87c-6.66,6.9 -12.99,13.23 -18.97,19.03 -6.39,6.2 -11.98,11.45 -16.89,15.91l-0.01 -0.02c-5.24,4.99 -10.4,9.67 -15.49,14.03 -5,4.29 -10.17,8.44 -15.49,12.43 -4.91,3.68 -9.54,7.05 -14.22,10.12 -5.27,3.46 -10.3,6.35 -15.27,8.53l-0.01 -0.01c-4.68,2.28 -9,4.03 -13.1,5.25 -5.54,1.64 -10.74,2.46 -15.82,2.46 -7.3,0 -14,-1.4 -20.29,-4.08 -6.28,-2.67 -11.64,-6.4 -16.35,-11.11l-1.46 -1.76c-4.39,-5.26 -7.66,-11.11 -9.79,-17.62 -2.01,-6.11 -3.01,-12.6 -3.01,-19.57 0,-5.16 0.58,-10.98 1.67,-17.32 1,-5.84 2.49,-12.23 4.4,-19.02l0.39 -1.07c2.26,-6.79 4.82,-13.64 7.66,-20.41 2.86,-6.85 6.25,-14.33 10.16,-22.39l0.03 0.01c1.9,-4.04 3.87,-8.06 5.9,-12.05 -1.33,1.65 -2.79,3.48 -4.41,5.51 -3.49,4.39 -7.06,9.05 -10.65,13.98l-0.49 0.58c-2.74,3.55 -8.16,10.47 -13.92,17.82 -2.23,2.85 4.37,-5.57 -12.44,16.04 -12.43,15.99 -20.68,26.98 -28.92,37.97l-0.02 0.03 -0.2 0.29c-3.61,4.71 -7.33,8.54 -11.04,11.39 -6.53,5.02 -13.48,7.63 -20.71,7.63 -6.41,0 -12.8,-1.9 -19.29,-5.85 -4.2,-2.56 -8.42,-5.96 -12.72,-10.26 -4.08,-4.08 -7.28,-7.86 -9.68,-11.4 -4.34,-6.44 -6.43,-12.8 -6.43,-19.23 0,-5.67 2.02,-12.33 6.05,-19.94 2.5,-4.73 6.05,-10.54 10.63,-17.42l0 -0.09c5.03,-7.54 9.08,-13.65 11.2,-16.96 3.27,-5.1 6.1,-9.65 8.37,-13.59l0.3 -0.49zm139.22 -155.36c-5.08,12.03 -12.48,26.36 -22.2,43.94 -9.71,17.11 -19.42,34.22 -29.6,50.87 -9.71,17.12 -28.21,47.64 -54.11,91.58 29.14,-36.54 55.96,-68.45 80.48,-95.74 24.51,-27.75 45.78,-49.95 64.28,-67.06 18.04,-17.11 33.3,-30.06 45.79,-38.85 12.49,-8.33 21.74,-12.95 27.75,-12.95 2.31,0 4.63,2.31 7.4,6.01 2.78,4.16 5.55,8.79 7.86,14.8 2.32,5.55 3.24,10.18 3.24,13.88 0,9.71 -2.31,19.88 -7.4,29.6 -5.09,9.71 -12.49,21.27 -22.66,35.15 -28.21,38.38 -49.03,68.45 -61.98,90.18 -12.95,22.2 -19.42,39.78 -19.42,53.19 0,10.18 5.09,15.26 15.72,15.26 4.63,0 10.64,-1.85 17.12,-5.55 6.47,-3.7 13.87,-9.25 23.12,-16.65 8.79,-7.4 18.04,-15.72 27.29,-24.51l0.46 17.58c-12.95,13.41 -24.51,24.51 -34.69,33.76 -10.17,9.71 -19.88,18.04 -29.13,24.97 -9.25,6.94 -17.12,12.49 -24.52,15.73 -7.4,3.7 -13.41,5.55 -18.96,5.55 -7.86,0 -13.87,-2.78 -18.96,-7.86 -4.63,-5.55 -6.94,-12.49 -6.94,-21.28 0,-7.86 1.85,-18.04 5.09,-29.6 3.7,-11.1 9.25,-24.51 16.65,-39.77 6.94,-14.8 16.19,-31.45 26.82,-49.03 10.64,-17.57 23.13,-35.61 36.54,-55.04 13.41,-18.96 19.89,-30.98 19.89,-36.53 0,-3.24 -1.85,-4.63 -5.09,-4.63 -13.41,0 -43.94,26.83 -91.57,80.01 -3.24,3.24 -8.33,9.72 -15.73,18.5 -7.4,8.79 -15.26,18.5 -22.66,28.68 -7.86,10.17 -16.65,21.27 -26.36,33.76 -9.72,12.49 -19.43,25.44 -29.14,38.39 -4.63,6.01 -8.79,9.25 -12.03,9.25 -3.7,0 -8.32,-2.78 -14.33,-8.79 -6.02,-6.01 -8.79,-10.17 -8.79,-12.95 0,-3.24 4.16,-11.1 12.49,-23.59 8.32,-12.48 15.26,-23.12 20.35,-31.91 26.82,-43.94 47.17,-78.62 60.58,-104.06 12.95,-25.44 19.89,-41.63 19.89,-48.56 0,-2.78 -0.92,-4.63 -2.77,-6.48 -1.85,-1.39 -4.17,-2.31 -6.48,-2.31 -4.62,0 -17.57,4.62 -39.31,13.41 -18.04,7.4 -30.99,13.41 -39.31,18.04 -8.33,4.62 -19.89,10.64 -34.23,18.96 -14.8,8.33 -23.12,12.49 -24.97,12.49 -4.17,0 -6.48,-2.78 -6.48,-8.79 0,-11.1 7.4,-25.9 22.2,-44.86 14.34,-18.96 34.23,-35.15 58.74,-49.49 3.24,-1.85 4.62,-1.85 4.62,0.46 0,0.93 -1.85,2.32 -5.55,5.09 -3.7,2.78 -6.93,5.55 -9.71,8.33 -2.77,2.77 -5.55,6.93 -9.25,12.48 31.45,-15.72 55.04,-26.82 69.84,-33.3 14.8,-6.47 27.29,-9.71 37.92,-9.71 9.25,0 16.19,1.85 21.74,5.55 5.09,4.16 7.86,9.71 7.86,16.65 0,6.48 -2.77,15.73 -7.4,27.75z"/>
  </g>
 </g>
</svg>
