<?xml version="1.0" encoding="UTF-8"?>
<!DOCTYPE svg PUBLIC "-//W3C//DTD SVG 1.1//EN" "http://www.w3.org/Graphics/SVG/1.1/DTD/svg11.dtd">
<!-- Creator: CorelDRAW (Evaluation Version) -->
<svg xmlns="http://www.w3.org/2000/svg" xml:space="preserve" width="8.5in" height="11in" version="1.1" style="shape-rendering:geometricPrecision; text-rendering:geometricPrecision; image-rendering:optimizeQuality; fill-rule:evenodd; clip-rule:evenodd"
viewBox="0 0 8500 11000"
 xmlns:xlink="http://www.w3.org/1999/xlink"
 xmlns:xodm="http://www.corel.com/coreldraw/odm/2003">
 <defs>
  <style type="text/css">
   <![CDATA[
    .fil0 {fill:#2AFEB7;fill-rule:nonzero}
   ]]>
  </style>
 </defs>
 <g id="Layer_x0020_1">
  <metadata id="CorelCorpID_0Corel-Layer"/>
  <path class="fil0" d="M4354.17 5562.55c0,5.72 -4.64,10.37 -10.37,10.37l-83.43 0c-5.72,0 -10.37,-4.64 -10.37,-10.37 0,-5.72 4.64,-10.37 10.37,-10.37l83.43 0c5.72,0 10.37,4.64 10.37,10.37z"/>
  <path class="fil0" d="M4354.17 5500c0,5.72 -4.64,10.37 -10.37,10.37l-187.6 0c-5.72,0 -10.37,-4.64 -10.37,-10.37 0,-5.73 4.64,-10.37 10.37,-10.37l187.6 0c5.72,0 10.37,4.64 10.37,10.37z"/>
  <path class="fil0" d="M4343.8 5447.81c5.72,0 10.37,-4.64 10.37,-10.37 0,-5.72 -4.64,-10.37 -10.37,-10.37l-125.1 0c-5.72,0 -10.37,4.64 -10.37,10.37 0,5.73 4.64,10.37 10.37,10.37l125.1 0z"/>
 </g>
</svg>
