<?xml version="1.0" encoding="UTF-8"?>
<!DOCTYPE svg PUBLIC "-//W3C//DTD SVG 1.1//EN" "http://www.w3.org/Graphics/SVG/1.1/DTD/svg11.dtd">
<!-- Creator: CorelDRAW (Evaluation Version) -->
<svg xmlns="http://www.w3.org/2000/svg" xml:space="preserve" width="1.16417E+007px" height="2550px" version="1.1" style="shape-rendering:geometricPrecision; text-rendering:geometricPrecision; image-rendering:optimizeQuality; fill-rule:evenodd; clip-rule:evenodd"
viewBox="0 0 11641666.64 8995833.31"
 xmlns:xlink="http://www.w3.org/1999/xlink"
 xmlns:xodm="http://www.corel.com/coreldraw/odm/2003">
 <defs>
  <style type="text/css">
   <![CDATA[
    .fil0 {fill:#2AFEB7;fill-rule:nonzero}
   ]]>
  </style>
 </defs>
 <g id="Layer_x0020_1">
  <metadata id="CorelCorpID_0Corel-Layer"/>
  <path class="fil0" d="M10365570.81 7363304.15c0,272625 -221062.5,493687.5 -493687.5,493687.5l-3973499.99 0c-272625,0 -493687.5,-221062.5 -493687.5,-493687.5 0,-272625 221062.5,-493687.5 493687.5,-493687.5l3973499.99 0c272625,0 493687.5,221062.5 493687.5,493687.5z"/>
  <path class="fil0" d="M10365570.81 4384491.66c0,272625 -221062.5,493687.5 -493687.5,493687.5l-8934374.98 0c-272625,0 -493687.5,-221062.5 -493687.5,-493687.5 0,-272812.5 221062.5,-493687.5 493687.5,-493687.5l8934374.98 0c272625,0 493687.5,220875 493687.5,493687.5z"/>
  <path class="fil0" d="M9871883.31 1898991.66c272625,0 493687.5,-220875 493687.5,-493687.5 0,-272625 -221062.5,-493687.5 -493687.5,-493687.5l-5957812.49 0c-272624.99,0 -493687.49,221062.5 -493687.49,493687.5 0,272812.5 221062.5,493687.5 493687.49,493687.5l5957812.49 0z"/>
 </g>
</svg>
